<?xml version="1.0" encoding="UTF-8" standalone="no"?>
<svg
   xmlns:dc="http://purl.org/dc/elements/1.1/"
   xmlns:cc="http://creativecommons.org/ns#"
   xmlns:rdf="http://www.w3.org/1999/02/22-rdf-syntax-ns#"
   xmlns:svg="http://www.w3.org/2000/svg"
   xmlns="http://www.w3.org/2000/svg"
   version="1.1"
   width="663.84"
   viewBox="0 0 663.84003 664.38"
   height="664.38"
   id="svg2">
  <metadata
     id="metadata8">
    <rdf:RDF>
      <cc:Work
         rdf:about="">
        <dc:format>image/svg+xml</dc:format>
        <dc:type
           rdf:resource="http://purl.org/dc/dcmitype/StillImage" />
        <dc:title></dc:title>
      </cc:Work>
    </rdf:RDF>
  </metadata>
  <defs
     id="defs6" />
  <path
     id="path3336"
     d="m 319.42713,663.15603 c -26.55513,-1.1163 -50.66413,-4.81111 -75.33,-11.54466 -47.77283,-13.04152 -92.51234,-37.0985 -130.14,-69.97786 -9.59636,-8.38539 -21.166166,-19.85315 -29.615846,-29.35467 -15.30201,-17.20683 -29.0974,-36.42752 -40.43728,-56.34 -6.67904,-11.72821 -13.46984,-25.66559 -18.59788,-38.17019 -13.1799,-32.13885 -21.24208,-66.56609 -23.75052,-101.41981 -0.63004002,-8.75407 -0.72485002,-11.90543 -0.72567002,-24.12 -8.2e-4,-12.21898 0.0781,-14.82962 0.72618002,-24.03 5.03779,-71.51427 33.46925,-139.60479 80.98459,-193.95 8.94384,-10.22942 20.762596,-22.047085 31.243766,-31.240869 49.46997,-43.393673 110.8199,-70.987135 176.24643,-79.2706555 20.30468,-2.570733 42.32658,-3.26764607 62.60623,-1.981258 50.19588,3.1840512 97.80577,17.2088265 141.3,41.6237205 37.19072,20.876504 70.05506,48.809273 96.82911,82.299062 42.41545,53.05456 67.3207,117.47209 71.64497,185.31 0.45716,7.17203 0.59889,12.19855 0.59889,21.24 0,11.43067 -0.2615,17.93947 -1.13904,28.35 -7.63443,90.56986 -52.31518,173.8687 -123.83393,230.86507 -40.94579,32.63144 -89.18908,55.0899 -140.4922,65.40264 -16.24649,3.26579 -30.7832,5.08302 -49.1378,6.14268 -4.24019,0.2448 -24.36865,0.36064 -28.98,0.1668 z m 29.07,-74.04953 c 15.6812,-1.12155 29.10395,-3.13819 43.23841,-6.49618 63.09729,-14.99035 118.70433,-53.8924 154.74528,-108.25803 24.8035,-37.41461 39.18465,-79.81452 42.22215,-124.48345 3.47683,-51.12954 -8.17558,-101.73274 -33.57828,-145.82128 -19.2227,-33.36267 -45.94646,-62.28982 -77.65756,-84.06053 -17.65219,-12.11881 -37.49989,-22.359142 -57.33,-29.579178 -21.57606,-7.855726 -44.07797,-12.784952 -66.96,-14.668128 -7.72092,-0.635429 -10.50748,-0.730877 -21.33,-0.730625 -10.81919,1.8e-4 -13.62191,0.09625 -21.33,0.730625 -50.85311,4.18518 -99.2426,23.423161 -139.14,55.317226 -8.0431,6.42967 -13.42674,11.27145 -21.43004,19.27312 -9.49243,9.49048 -16.25354,17.22715 -23.68177,27.09877 -29.667356,39.42596 -47.166146,85.5623 -50.998576,134.46 -0.62992,8.03705 -0.77773,13.11338 -0.67823,23.29268 0.0918,9.39237 0.28134,13.54434 0.9457,20.71732 4.0219,43.42363 18.63169,84.2803 43.060576,120.42 5.97916,8.84549 12.65912,17.49317 19.80566,25.63988 7.74561,8.8296 18.1797,19.08153 27.12668,26.65311 36.22556,30.65666 79.62615,50.56499 126.18,57.88013 8.72955,1.37169 18.16627,2.33723 27.99,2.86384 4.68376,0.25108 24.16111,0.0825 28.8,-0.2493 z M 326.75696,444.25983 c -27.3967,-1.20206 -53.47587,-12.53001 -73.0929,-31.74924 -4.70565,-4.61022 -7.55732,-7.84631 -11.38417,-12.91886 -18.42149,-24.41784 -25.95651,-55.28721 -20.94673,-85.8142 4.61527,-28.12299 20.13336,-53.72842 43.01397,-70.97462 15.28808,-11.52334 32.73935,-18.79529 51.66,-21.52668 5.67767,-0.81963 8.49872,-0.99654 15.93,-0.99891 7.41694,-0.002 10.09629,0.16464 15.93,0.99291 44.93005,6.3792 81.82463,39.60888 92.86519,83.64051 3.46557,13.82129 4.25858,29.01251 2.25293,43.1581 -1.26032,8.88889 -3.6464,17.80592 -7.02198,26.24188 -1.49276,3.73055 -5.5334,11.85013 -7.5881,15.24812 -9.89481,16.36367 -22.82362,29.32164 -38.83804,38.92565 -16.16404,9.69372 -33.86803,14.96363 -53.05014,15.79131 -4.50677,0.19445 -4.95047,0.19373 -9.73003,-0.016 z"
     style="fill:#f9f9f9;fill-opacity:1" />
</svg>
