<?xml version="1.0" encoding="UTF-8" standalone="no"?>
<svg
   xmlns:dc="http://purl.org/dc/elements/1.1/"
   xmlns:cc="http://creativecommons.org/ns#"
   xmlns:rdf="http://www.w3.org/1999/02/22-rdf-syntax-ns#"
   xmlns:svg="http://www.w3.org/2000/svg"
   xmlns="http://www.w3.org/2000/svg"
   id="svg2"
   viewBox="0 0 250 128.25328"
   version="1"
   width="250"
   height="128.25328">
  <metadata
     id="metadata10">
    <rdf:RDF>
      <cc:Work
         rdf:about="">
        <dc:format>image/svg+xml</dc:format>
        <dc:type
           rdf:resource="http://purl.org/dc/dcmitype/StillImage" />
        <dc:title></dc:title>
      </cc:Work>
    </rdf:RDF>
  </metadata>
  <defs
     id="defs8" />
  <g
     style="fill:#f9f9f9"
     id="g3338"
     transform="matrix(0.46292745,0,0,0.46292745,0.00448232,0.01243024)">
    <path
       id="path3362"
       d="M 58.59,0.12027964 C 53.580038,0.73515836 50.279969,1.3688342 46.89,2.3669172 35.933179,5.5928409 26.784133,11.012111 18.80136,19.004687 8.6015133,29.217066 2.2762897,41.923364 0.27100373,56.229018 -0.12968908,59.087542 -0.02391109,72.347732 0.42051877,74.972023 1.139294,79.216269 1.9203001,82.379782 3.1790873,86.145738 8.3826572,101.71345 20.351686,115.54372 35.1,123.0305 c 7.818811,3.96911 14.620554,5.95184 23.76,6.92612 2.357591,0.25132 11.934607,0.11839 13.95,-0.19363 5.561708,-0.86105 9.193489,-1.7027 12.87,-2.98258 7.830776,-2.72606 14.76623,-6.64611 20.94269,-11.83721 l 0.87269,-0.73346 81.25231,81.40588 L 270,277.0215 l 81.25231,-81.40588 81.25232,-81.40588 0.87268,0.73346 c 4.03974,3.39526 8.20017,6.11588 13.05684,8.53825 5.63821,2.81218 10.93784,4.55134 17.42585,5.71858 3.89914,0.70148 4.89919,0.78799 10.08,0.87198 6.34975,0.10294 9.2763,-0.14178 14.48946,-1.21158 8.8133,-1.80859 17.44774,-5.59954 24.6757,-10.83388 8.58924,-6.22014 15.64529,-14.48176 20.30212,-23.770857 2.30492,-4.597695 3.65453,-8.27109 4.99907,-13.606701 1.33155,-5.284068 1.45383,-6.465941 1.53812,-14.86825 0.0623,-6.207233 0.0256,-7.831657 -0.21548,-9.551724 C 537.7237,41.923364 531.39848,29.217066 521.19864,19.004687 512.55936,10.35479 502.04176,4.4366317 490.32,1.6295602 485.23356,0.41146304 482.97796,0.15572915 476.42888,0.054589 470.08595,-0.04337925 467.5867,0.13968946 462.69,1.0608722 c -2.14646,0.4038036 -5.94173,1.4271897 -8.55,2.3054798 -15.81156,5.3242572 -29.46022,17.245295 -37.001,32.317448 -3.5827,7.160927 -5.34774,12.957995 -6.5847,21.626545 -0.33144,2.322799 -0.33851,13.351418 -0.01,15.499024 0.42825,2.798979 0.7608,4.76759 0.92856,5.496747 1.07547,4.674505 1.79557,7.070528 3.19574,10.633051 0.93667,2.383245 3.14159,7.037026 3.73801,7.889577 0.15031,0.214879 0.27331,0.447222 0.27331,0.516317 C 418.68,97.553543 270.20826,246.18217 270,246.18217 c -0.20826,0 -148.68,-148.628627 -148.68,-148.837109 0,-0.0691 0.12299,-0.301438 0.27331,-0.516317 0.59642,-0.852551 2.80133,-5.506332 3.73801,-7.889577 1.40016,-3.562523 2.12028,-5.958546 3.19574,-10.633051 0.16776,-0.729157 0.50031,-2.697768 0.92856,-5.496747 0.32858,-2.147606 0.32152,-13.176225 -0.01,-15.499024 C 128.20876,48.641795 126.44371,42.844727 122.86101,35.6838 118.13618,26.240028 111.15669,18.115548 102.42026,11.889734 97.340004,8.2693962 91.417624,5.2237839 85.860007,3.3735608 c -2.798827,-0.9317977 -3.453818,-1.117804 -6.12,-1.7380713 -3.972638,-0.92419243 -3.582858,-0.85617694 -8.37,-1.46058482 -1.194667,-0.15082713 -11.63261,-0.1954499 -12.78,-0.054625 z M 69.93997,22.253156 c 12.059752,1.595409 22.25326,7.531156 29.409212,17.125178 4.709698,6.314321 7.574778,13.849171 8.291868,21.806767 1.00241,11.12374 -2.33338,22.166758 -9.309205,30.817827 C 90.068656,102.25052 77.841902,108.1315 64.8,108.1315 c -9.281218,0 -18.30307,-2.98302 -25.65,-8.481019 C 30.406804,93.107612 24.662164,83.97191 22.504916,73.179796 c -0.959632,-4.800769 -0.956779,-11.834893 0.0066,-16.320004 0.58581,-2.727234 0.7725,-3.443469 1.409272,-5.406637 3.477848,-10.72217 11.8759,-20.292061 22.069192,-25.14868 3.110252,-1.481869 3.487896,-1.634228 5.94,-2.396365 2.401671,-0.746477 4.808892,-1.271569 7.56,-1.649133 2.330067,-0.319784 8.052703,-0.322956 10.44997,-0.0058 z m 410.4,0 c 2.54585,0.336798 5.59431,0.94818 6.74003,1.351732 0.2475,0.08717 1.1385,0.373904 1.98,0.637154 1.72688,0.540267 1.95219,0.634126 4.95,2.062433 8.2678,3.939203 15.51157,11.083334 19.67427,19.403607 1.53423,3.06659 2.66146,6.130044 3.3408,9.079166 0.53858,2.338118 0.66157,3.009424 0.92448,5.046194 0.69491,5.383171 0.0968,12.485311 -1.4798,17.571568 -5.71228,18.428556 -22.23003,30.72649 -41.26975,30.72649 -13.0419,0 -25.26865,-5.88098 -33.53184,-16.128572 C 431.26889,79.10628 429.24778,61.4171 436.45023,46.334459 442.29611,34.092609 453.65018,25.360765 467.19,22.694013 c 3.65846,-0.72056 9.54419,-0.917884 13.14997,-0.440857 z"
       style="fill:#f9f9f9;fill-opacity:1" />
    <path
       id="path3360"
       d="M 56.79,0.37374275 C 48.846541,1.4402378 41.996767,3.5440501 35.37,6.9526099 32.131105,8.6185748 31.627006,8.9126057 28.89,10.732335 19.427641,17.023497 11.918298,25.471781 6.7116287,35.6838 5.4104909,38.235768 4.582789,40.167685 3.3528546,43.523422 2.1143077,46.90266 0.85171266,52.223781 0.27145082,56.509784 c -0.24479773,1.80816 -0.28054902,3.381941 -0.21289039,9.371503 0.08313111,7.359279 0.13328245,8.002326 0.94089967,12.064386 1.9363694,9.739317 6.485639,19.579777 12.6641319,27.393627 1.351613,1.70936 4.810411,5.5844 5.535696,6.20187 0.280892,0.23914 1.077712,0.96969 1.770712,1.62345 2.812491,2.65323 7.946993,6.43087 11.368267,8.36403 6.997144,3.95368 13.954173,6.44524 21.661733,7.75783 3.789931,0.64542 5.209875,0.74312 10.8,0.74312 5.599944,0 7.057445,-0.10075 10.8,-0.74659 11.250477,-1.94145 20.971172,-6.34493 30.13735,-13.65223 l 1.78735,-1.42488 81.23765,81.3835 81.23765,81.38351 81.23765,-81.38351 81.23766,-81.3835 1.78734,1.42488 c 9.16618,7.3073 18.88686,11.71078 30.13735,13.65223 3.74256,0.64584 5.20006,0.74659 10.8,0.74659 5.59013,0 7.01006,-0.0977 10.8,-0.74312 7.70756,-1.31259 14.66458,-3.80415 21.66174,-7.75783 3.42126,-1.93316 8.55576,-5.7108 11.36826,-8.36403 0.693,-0.65376 1.48982,-1.38431 1.77071,-1.62345 0.7253,-0.61747 4.18409,-4.49251 5.53571,-6.20187 6.17848,-7.81385 10.72774,-17.65431 12.66411,-27.393627 0.80763,-4.06206 0.85777,-4.705107 0.94092,-12.064386 0.0676,-5.989562 0.0319,-7.563343 -0.21291,-9.371503 -0.58025,-4.286003 -1.84286,-9.607124 -3.0814,-12.986362 -1.22992,-3.355737 -2.05763,-5.287654 -3.35876,-7.839622 C 528.0817,25.471781 520.57237,17.023497 511.11,10.732335 508.37299,8.9126057 507.8689,8.6185748 504.63,6.9526099 497.91213,3.4972106 491.07841,1.4128442 483.03983,0.36738094 480.79642,0.0756028 479.20817,2.8835394e-4 475.32254,0.00136968 c -4.61295,0.00180221 -5.53168,0.05496747 -9.29903,0.54329486 -7.58286,0.98292646 -16.38657,4.03387336 -23.45243,8.12754406 -3.37776,1.9569324 -8.28182,5.5620594 -10.99746,8.0845434 -0.60698,0.563822 -1.33265,1.220944 -1.61259,1.460242 -0.7664,0.655176 -4.41686,4.726283 -5.86215,6.537633 -6.04634,7.577761 -10.51913,17.18566 -12.59681,27.058971 -0.95953,4.559759 -1.19207,7.126199 -1.19207,13.156148 0,5.681348 0.11664,7.280667 0.82809,11.353936 0.7357,4.212113 2.36365,9.959763 3.67528,12.975928 0.12931,0.297365 0.53539,1.230009 0.90237,2.072544 0.36699,0.842534 1.20039,2.569828 1.852,3.838441 l 1.18475,2.306563 L 344.37623,171.98481 270,246.45245 195.62377,171.98481 121.24752,97.517158 l 1.18474,-2.306563 c 0.65161,-1.268613 1.48501,-2.995907 1.852,-3.838441 0.36699,-0.842535 0.77305,-1.775179 0.90237,-2.072544 1.31163,-3.016165 2.93958,-8.763815 3.67528,-12.975928 0.71144,-4.073269 0.82809,-5.672588 0.82809,-11.353936 0,-6.029949 -0.23254,-8.596389 -1.19208,-13.156148 -2.07768,-9.873311 -6.55046,-19.48121 -12.5968,-27.058971 -1.44529,-1.81135 -5.09576,-5.882457 -5.86215,-6.537633 -0.27993,-0.239298 -1.0056,-0.89642 -1.61259,-1.460242 -2.71563,-2.522484 -7.6197,-6.127611 -10.99746,-8.0845434 C 92.913401,6.0560995 87.275187,3.6838837 82.179499,2.2561353 78.713138,1.2849232 75.873904,0.75584776 71.01,0.17476051 68.439371,-0.13233643 59.642622,-0.00924535 56.79,0.37374275 Z M 69.715327,22.175391 c 5.88063,0.855762 9.15564,1.831858 13.894673,4.141231 4.624603,2.253594 8.062322,4.711307 11.703083,8.366788 8.092097,8.124822 12.503787,18.842488 12.503787,30.376447 0,9.385794 -2.92112,18.245217 -8.467688,25.681522 C 92.839642,99.468748 83.737469,105.20578 72.9,107.41208 c -4.58293,0.933 -11.61707,0.933 -16.2,0 -2.519402,-0.5129 -3.338741,-0.73022 -5.85,-1.55162 -1.594373,-0.52151 -1.83643,-0.62283 -4.68,-1.95894 C 39.299319,100.6732 32.888977,95.041656 28.625585,88.488614 28.012946,87.546958 26.878383,85.47892 26.104333,83.892973 23.808263,79.188569 22.82436,75.879275 21.968172,69.98123 21.499958,66.755829 21.799237,60.16404 22.58906,56.30581 25.863723,40.309321 38.250644,27.313047 54.09,23.25524 c 1.311955,-0.336094 3.725104,-0.797803 5.58,-1.06763 1.553155,-0.225925 8.518529,-0.234396 10.045327,-0.01225 z m 410.988333,0.08148 c 9.51176,1.305522 17.63091,5.240977 24.52437,11.887283 6.97506,6.724972 11.3281,15.42061 12.71794,25.405279 0.32002,2.299136 0.3708,8.468883 0.0859,10.431799 -0.85619,5.898045 -1.84009,9.207339 -4.13617,13.911743 -0.77403,1.585947 -1.90861,3.653985 -2.52124,4.595641 -4.26339,6.553042 -10.67373,12.184584 -17.54442,15.412904 -2.84357,1.33611 -3.08563,1.43743 -4.68,1.95894 -2.15878,0.70611 -2.42021,0.78247 -3.69,1.07789 -7.84719,1.8256 -15.92818,1.56688 -23.13,-0.74054 -12.47893,-3.99817 -22.46146,-13.295829 -27.14047,-25.278485 -2.09995,-5.377801 -3.0064,-10.159574 -3.0064,-15.859466 0,-11.533959 4.41169,-22.251625 12.50379,-30.376447 3.64075,-3.655481 7.07848,-6.113194 11.70308,-8.366788 4.66322,-2.272427 7.94655,-3.261607 13.68,-4.121407 1.83915,-0.27581 8.45444,-0.237441 10.63366,0.06165 z"
       style="fill:#f9f9f9;fill-opacity:1" />
    <path
       id="path3358"
       d="M 59.22,0.11417014 C 58.9725,0.14996207 58.041,0.26651113 57.15,0.37316604 55.612087,0.557262 51.982961,1.1508566 51.21,1.3447566 51.012,1.3944256 50.121,1.6026892 49.23,1.8075827 42.399747,3.3781745 34.735068,6.793799 28.44,11.07225 21.495278,15.792244 15.731706,21.522594 11.105864,28.306426 6.6435658,34.850421 3.2080455,42.580685 1.5397413,49.831165 1.380089,50.525016 1.2097402,51.254912 1.1611884,51.453155 0.98314976,52.180114 0.38053832,55.823898 0.17762197,57.400455 -0.07882661,59.392927 0.04455539,72.284871 0.33802862,74.161028 1.1578733,79.402257 2.4693743,84.35598 4.2266961,88.849057 c 0.9881174,2.526395 3.1409905,6.925144 4.5204356,9.236167 3.0283433,5.073446 5.8695413,8.685586 10.3141433,13.112796 6.463888,6.4386 12.468468,10.4343 21.528725,14.32612 3.045778,1.30832 9.507719,3.13198 13.14,3.70832 3.699144,0.58695 5.456925,0.7369 9.72,0.82915 5.809381,0.1257 9.476942,-0.20085 14.85,-1.3222 9.893245,-2.0647 19.264073,-6.55892 27.51708,-13.1971 l 1.68709,-1.35698 81.24792,81.39379 81.24791,81.39379 81.24791,-81.39379 81.24792,-81.39379 1.68708,1.35698 c 8.25302,6.63818 17.62384,11.1324 27.51709,13.1971 5.37305,1.12135 9.04063,1.4479 14.85,1.3222 6.15004,-0.13308 9.21838,-0.53796 14.85,-1.95951 2.72741,-0.68846 6.25208,-1.82284 8.01,-2.57796 9.06026,-3.89182 15.06483,-7.88752 21.52872,-14.32612 4.44461,-4.42721 7.28581,-8.03935 10.31414,-13.112796 1.37945,-2.311023 3.53232,-6.709772 4.52045,-9.236167 1.75732,-4.493077 3.06882,-9.4468 3.88867,-14.688029 0.29347,-1.876157 0.41684,-14.768101 0.1604,-16.760573 -0.20292,-1.576557 -0.80552,-5.220341 -0.98356,-5.9473 -0.0486,-0.198243 -0.21892,-0.928139 -0.37856,-1.62199 -1.66831,-7.25048 -5.10383,-14.980744 -9.56612,-21.524739 C 521.59192,17.597664 511.08271,9.1986347 499.05,4.45478 496.18694,3.3260365 493.1406,2.3523554 490.77,1.8082856 489.879,1.6038066 488.826,1.3598952 488.43,1.2662883 488.034,1.1726634 486.9405,0.9729242 486,0.82240345 485.0595,0.67188269 483.723,0.45650033 483.03,0.34377196 481.19506,0.04525355 471.49297,-0.08219889 469.32889,0.16376701 463.1558,0.86540423 459.69653,1.6067262 454.14,3.4187964 450.87264,4.4843362 445.51141,6.96573 442.21516,8.938107 c -12.1021,7.241522 -21.49304,17.988149 -26.91515,30.80067 -5.1395,12.144765 -6.43665,25.75161 -3.70243,38.837671 1.14397,5.475048 2.91438,10.460417 5.68368,16.005031 l 1.46791,2.938997 L 344.37458,171.98646 270,246.45245 195.62542,171.98646 121.25083,97.520476 l 1.46791,-2.938997 c 2.76931,-5.544614 4.53971,-10.529983 5.68367,-16.005031 2.0749,-9.930477 1.82426,-20.460622 -0.71625,-30.092149 C 123.32795,31.961511 112.6412,17.82768 97.784831,8.938107 94.488584,6.96573 89.127353,4.4843362 85.86,3.4187964 80.352126,1.6226036 77.13281,0.92774275 70.83,0.17476051 69.496223,0.01542694 60.23691,-0.03290839 59.22,0.11417014 Z M 70.38,22.274963 c 17.169107,2.221785 31.36828,14.61868 36.00043,31.430958 0.98699,3.582257 1.43666,7.136021 1.43666,11.353936 0,3.634233 -0.27848,6.281051 -0.99955,9.500181 C 103.22156,90.613801 90.328817,103.53878 74.34,107.1188 67.566859,108.63535 59.932053,108.47906 53.46,106.69136 41.539919,103.39882 31.44778,95.04672 26.093995,84.043656 24.57724,80.926442 23.895981,79.048014 22.934653,75.332466 21.133836,68.372269 21.359354,59.418536 23.508869,52.534483 25.621497,45.768582 28.989076,40.096948 33.928817,34.985352 43.423706,25.160142 56.754526,20.511733 70.38,22.274963 Z m 410.58,0.0068 c 13.95432,1.857612 26.14163,10.50203 32.6254,23.141106 1.05919,2.06474 2.20721,4.874389 2.90574,7.111493 2.1495,6.884053 2.37502,15.837786 0.57421,22.797983 -0.96132,3.715548 -1.64259,5.593976 -3.15934,8.71119 -5.77334,11.865314 -17.2146,20.727935 -30.06601,23.289705 -4.21762,0.84073 -10.00586,1.05622 -14.04,0.52269 -18.02279,-2.38358 -32.67828,-15.709685 -36.61754,-33.296013 -0.72107,-3.21913 -0.99956,-5.865948 -0.99956,-9.500181 0,-6.406107 1.08018,-11.652347 3.56225,-17.301236 C 443.5153,30.074595 461.8584,19.739016 480.96,22.281812 Z"
       style="fill:#f9f9f9;fill-opacity:1" />
    <path
       id="path3356"
       d="M 57.33,0.36318178 C 44.530727,2.0168375 34.243519,6.3163209 24.21,14.205522 21.682543,16.192804 16.148617,21.693443 14.205667,24.149642 6.4007615,34.016321 1.8933127,44.626989 0.26909771,56.956751 -0.0963889,59.731238 -0.10455378,70.295157 0.25670588,72.98959 c 0.36360236,2.711915 0.61817976,4.310062 0.81818312,5.136305 0.095976,0.396486 0.4245829,1.755769 0.7302385,3.020615 1.7619411,7.291174 5.4469121,15.243687 10.0411245,21.66969 4.198414,5.8724 10.221474,11.80571 16.053748,15.81454 10.962427,7.53505 23.629905,11.48897 36.808054,11.48897 15.064866,0 29.338198,-5.05704 40.976116,-14.51785 0.90769,-0.73789 1.7054,-1.34161 1.7727,-1.34161 0.0673,0 36.66702,36.61038 81.33275,81.3564 L 270,276.97304 351.21038,195.61665 c 44.66573,-44.74602 81.26547,-81.3564 81.33275,-81.3564 0.0673,0 0.86501,0.60372 1.7727,1.34161 11.63791,9.46081 25.91125,14.51785 40.97611,14.51785 13.17816,0 25.84563,-3.95392 36.80806,-11.48897 5.83227,-4.00883 11.85534,-9.94214 16.05375,-15.81454 4.59421,-6.426003 8.27919,-14.378516 10.04112,-21.66969 0.30566,-1.264846 0.63427,-2.624129 0.73024,-3.020615 0.2,-0.826243 0.45457,-2.42439 0.81819,-5.136305 0.36126,-2.694433 0.35309,-13.258352 -0.0124,-16.032839 -0.42615,-3.235043 -0.78654,-5.126356 -1.52946,-8.026692 -2.33348,-9.109768 -6.33821,-17.108346 -12.40711,-24.780417 -1.94294,-2.456199 -7.47688,-7.956838 -10.00433,-9.94412 -8.89832,-6.9966015 -18.11241,-11.2001171 -28.98,-13.22082935 -5.69579,-1.05906994 -13.43111,-1.31736298 -18.81507,-0.62823312 -3.2665,0.41809519 -4.8518,0.66115957 -5.84493,0.89620407 -6.25116,1.4793818 -8.22618,2.1112554 -13.14,4.20393 -0.495,0.2108048 -2.034,0.960489 -3.42,1.6659829 -17.01322,8.6599175 -29.78906,25.1687395 -33.81836,43.6998045 -3.20497,14.739951 -1.39954,29.82816 5.14146,42.967783 0.68672,1.379467 1.3652,2.674825 1.50774,2.878583 0.14256,0.203758 0.25918,0.494381 0.25918,0.645833 0,0.151453 -33.453,33.76941 -74.34,74.70657 L 270,246.45234 195.66,172.02115 c -40.887,-40.93716 -74.34,-74.555117 -74.34,-74.70657 0,-0.151452 0.11662,-0.442075 0.25916,-0.645833 0.14254,-0.203758 0.82102,-1.499116 1.50773,-2.878583 5.93436,-11.920985 8.03291,-25.926065 5.87128,-39.183137 C 125.9253,36.006774 115.0866,19.789082 98.91,9.6467007 96.986992,8.4410208 92.815009,6.2338156 90.99,5.4565936 86.076178,3.363919 84.101173,2.7320454 77.85,1.2526636 76.856873,1.0176191 75.271568,0.77455472 72.005076,0.35645953 68.278358,-0.12054997 61.048355,-0.1172339 57.33,0.36312772 Z M 71.1,22.354423 c 4.830777,0.725805 8.437741,1.859738 12.87,4.046002 9.131222,4.50407 16.69937,12.570573 20.58117,21.936399 2.30363,5.558113 3.27773,10.499814 3.27863,16.632922 10e-4,7.979312 -1.83002,14.924407 -5.72011,21.694399 -3.647813,6.348364 -9.907039,12.549987 -16.06969,15.921815 -2.503247,1.36963 -2.8382,1.53794 -4.33755,2.17959 -5.387503,2.3056 -10.696192,3.37654 -16.81245,3.39164 -6.520711,0.0161 -11.852053,-1.10098 -17.749949,-3.71918 C 37.061705,99.964018 28.45544,90.929062 24.646057,80.823554 22.479439,75.075975 21.742987,71.095285 21.729672,65.059857 21.71889,60.172744 22.108201,57.362086 23.425879,52.813934 27.654039,38.219891 39.787355,26.656573 54.63,23.075722 c 2.261966,-0.54571 5.484098,-1.043499 7.47,-1.15401 2.212609,-0.123146 6.753452,0.09517 9,0.432711 z m 410.13,-0.07396 c 4.47512,0.622898 8.58197,1.886736 12.78749,3.935202 8.51954,4.14981 15.51391,11.023266 19.68442,19.344206 2.1764,4.342322 3.47245,8.482868 4.27039,13.6428 0.45423,2.937299 0.41247,8.959769 -0.0837,12.074821 -0.61765,3.877513 -1.14141,5.85016 -2.53463,9.546065 -3.80939,10.105508 -12.41566,19.140464 -22.49401,23.614453 -5.89789,2.6182 -11.22922,3.73528 -17.74994,3.71918 -6.11626,-0.0151 -11.42494,-1.08604 -16.81245,-3.39164 -1.49935,-0.64165 -1.83431,-0.80996 -4.33755,-2.17959 -5.43661,-2.974576 -11.01731,-8.191584 -14.69457,-13.7369 -3.656,-5.513238 -5.86222,-11.431396 -6.81925,-18.292453 -0.36761,-2.635501 -0.36783,-8.538953 0,-11.133742 1.1103,-7.840993 4.03281,-14.838045 8.71094,-20.855523 1.67773,-2.158077 4.83493,-5.375116 6.95328,-7.085073 6.8929,-5.564041 15.19005,-8.855493 23.94,-9.496936 2.5529,-0.187142 6.66505,-0.05495 9.18,0.29513 z"
       style="fill:#f9f9f9;fill-opacity:1" />
    <path
       id="path3354"
       d="M 58.86,0.20570449 C 51.155768,1.1141996 45.912886,2.428625 39.78,4.9891539 31.742134,8.345053 25.143881,12.809493 18.807982,19.179033 13.675247,24.339037 10.195133,29.075791 7.0474361,35.186263 3.7221183,41.641516 1.6940446,47.929074 0.43441295,55.688354 0.03095069,58.173658 -0.14307443,69.259426 0.17696246,72.088484 2.2598285,90.500586 11.43091,106.37484 26.462549,117.58628 c 13.538583,10.09783 31.703843,14.47525 48.597451,11.7109 11.091577,-1.81495 21.616,-6.46043 30.03797,-13.25875 1.02739,-0.82932 1.98307,-1.58895 2.12374,-1.68807 0.20009,-0.141 17.92741,17.52112 81.44414,81.1446 44.65362,44.72865 81.25398,81.32482 81.33415,81.32482 0.0802,0 36.68053,-36.59617 81.33415,-81.32482 63.51673,-63.62348 81.24405,-81.2856 81.44415,-81.1446 0.14067,0.0991 1.09635,0.85875 2.12373,1.68807 15.55814,12.55872 36.94336,17.09642 56.58797,12.00732 7.92164,-2.05217 15.76298,-5.77216 22.04744,-10.45947 15.03164,-11.21144 24.20273,-27.085694 26.2856,-45.497796 0.32004,-2.829058 0.14602,-13.914826 -0.25745,-16.40013 C 537.57173,43.406296 533.17742,33.408615 525.62408,23.969421 522.63049,20.228425 517.13746,15.078784 512.89677,12.037732 497.99066,1.348361 479.0374,-2.4793933 460.98,1.5527319 445.91423,4.9168311 432.43445,13.692577 423.08707,26.222186 c -5.54944,7.438685 -9.31475,15.687788 -11.31104,24.780416 -3.28038,14.94124 -1.27537,30.325481 5.72249,43.908447 l 1.31254,2.547683 L 344.40552,171.95554 270,246.45234 195.59448,171.95554 121.18895,97.458732 122.50149,94.911049 C 135.68183,69.327765 130.55521,38.116678 109.90964,18.251326 97.522092,6.33191 81.584789,-0.06875439 64.522741,0.02324854 62.150733,0.03604424 59.6025,0.11815303 58.86,0.20570449 Z M 70.747816,22.255031 c 4.793103,0.712 8.706933,1.914219 12.869668,3.953242 7.171785,3.512908 13.056729,8.737286 17.459006,15.499276 1.18073,1.813639 3.0757,5.438572 3.68142,7.042288 0.22463,0.59473 0.56106,1.486825 0.74762,1.982434 0.80297,2.133098 1.63288,5.674192 2.15411,9.191281 0.32773,2.211405 0.27199,8.428388 -0.0977,10.903384 -1.42278,9.523862 -5.23443,17.362673 -11.748371,24.161014 -6.749703,7.0444 -15.292764,11.40164 -25.253519,12.88012 -2.842227,0.42187 -8.707549,0.43001 -11.52,0.016 -4.913969,-0.72338 -8.813164,-1.91516 -13.05,-3.9887 C 39.565983,100.75139 34.340419,96.411142 30.152935,90.741383 25.712172,84.728699 23.300974,78.894902 22.033706,71.097271 21.587065,68.349042 21.582113,61.824475 22.024506,59.02245 22.5952,55.408078 23.429611,52.246493 24.580213,49.338876 30.650543,33.998879 44.731421,23.428599 61.020017,21.98409 c 2.352795,-0.208642 7.456068,-0.0665 9.727816,0.270944 z M 481.77,22.346709 c 2.8733,0.471783 4.17735,0.771671 6.31377,1.451952 14.81929,4.718822 25.91113,16.826426 29.29685,31.979804 0.71124,3.183265 0.90791,5.193759 0.90791,9.281392 0,4.154441 -0.1883,5.993436 -0.96885,9.461613 -1.87265,8.320796 -6.1055,15.782152 -12.3497,21.769191 -5.74986,5.513079 -12.94498,9.305659 -21.03998,11.090269 -3.91993,0.86418 -10.46689,1.08428 -14.49,0.48714 -9.96075,-1.47848 -18.50382,-5.83572 -25.25351,-12.88012 -6.51395,-6.798341 -10.3256,-14.637152 -11.74839,-24.161014 -0.36974,-2.474996 -0.42546,-8.691979 -0.0977,-10.903384 0.52123,-3.517089 1.35114,-7.058183 2.1541,-9.191281 0.18657,-0.495609 0.52301,-1.387704 0.74763,-1.982434 0.60572,-1.603716 2.50068,-5.228649 3.68141,-7.042288 4.40228,-6.76199 10.28724,-11.986368 17.45901,-15.499276 4.95794,-2.428535 10.02969,-3.795819 15.93749,-4.296564 1.87699,-0.159081 7.37248,0.09388 9.45,0.435 z"
       style="fill:#f9f9f9;fill-opacity:1" />
    <path
       id="path3352"
       d="M 58.5,0.28462336 C 48.029265,1.5034594 39.433844,4.3659309 31.13953,9.3962473 23.676057,13.922683 16.875346,20.288096 11.599663,27.68542 5.5389663,36.183463 1.5364638,46.724385 0.2622211,57.543479 c -0.3512491,2.982319 -0.3512491,12.050437 0,15.032756 1.7326035,14.710862 8.1638559,27.979665 18.6318229,38.440705 11.048438,11.04114 24.86181,17.46117 40.505956,18.82593 6.118196,0.53373 11.843129,0.20182 18.36,-1.06446 10.082684,-1.95914 20.65946,-7.05456 28.60448,-13.78036 l 1.15449,-0.97732 81.24051,81.38578 81.24052,81.38578 81.24052,-81.38578 81.24051,-81.38578 1.15449,0.97732 c 3.85282,3.26158 8.47234,6.24886 13.21448,8.54533 7.49023,3.6273 14.55028,5.55435 23.12352,6.31161 8.60985,0.76051 17.58382,-0.33678 26.00293,-3.17947 9.52097,-3.21475 17.9053,-8.43914 25.12951,-15.65858 9.62744,-9.62107 15.84311,-21.626265 18.1764,-35.106613 0.76219,-4.403489 0.99486,-13.786688 0.45542,-18.366848 -0.90787,-7.708332 -2.94171,-14.572759 -6.34326,-21.409126 -3.30231,-6.636935 -6.9325,-11.667215 -12.29216,-17.032995 C 515.7583,13.751185 510.69577,10.088711 504.09,6.793817 491.04812,0.28866031 476.19034,-1.617215 461.88,1.3793591 453.52818,3.1282077 445.36532,6.6424852 438.3099,11.526732 426.78826,19.502818 418.13311,30.9994 413.65051,44.281649 c -2.14328,6.350707 -3.43123,14.158773 -3.4274,20.778208 0.004,6.268706 1.19333,13.839078 3.11541,19.824333 1.17513,3.659302 3.77422,9.656847 5.08761,11.73997 0.25292,0.401138 0.40673,0.78251 0.3418,0.847487 -0.0649,0.06498 -33.52329,33.591973 -74.3519,74.504443 -40.82859,40.91247 -74.31581,74.3863 -74.41603,74.3863 -0.10022,0 -33.58744,-33.47383 -74.41603,-74.3863 -40.82861,-40.91247 -74.28696,-74.439466 -74.35189,-74.504443 -0.0649,-0.06498 0.0889,-0.446349 0.34179,-0.847487 0.78952,-1.252231 2.90357,-5.780703 3.79794,-8.135546 2.36315,-6.222029 3.53504,-11.366479 4.13661,-18.159251 C 130.40498,60.205617 128.72435,49.557282 124.7126,39.943454 116.92749,21.287063 100.69135,7.175111 81.18,2.1062813 77.704366,1.203355 75.630524,0.82993669 71.465222,0.35703624 67.765763,-0.06296929 61.773629,-0.09643637 58.5,0.28462336 Z M 71.1,22.26305 c 12.587193,1.8991 23.704378,9.250539 30.4698,20.148732 1.25352,2.01927 3.20889,6.132243 3.98843,8.389369 0.80953,2.343993 1.60233,5.618072 2.01256,8.311406 0.43561,2.86002 0.43269,9.015854 -0.006,11.8946 -1.54059,10.117817 -5.9159,18.53112 -13.297748,25.570272 -5.156285,4.916911 -12.263569,8.772871 -19.295249,10.468371 -3.738748,0.9015 -5.91304,1.14744 -10.172153,1.1506 -4.242506,0.003 -6.348532,-0.23404 -10.17,-1.14537 -3.143916,-0.74975 -5.565724,-1.63909 -8.82,-3.23887 -8.669714,-4.261999 -15.363509,-10.925896 -19.712309,-19.624273 -2.022965,-4.04629 -3.294368,-8.076884 -4.072427,-12.910398 -0.449179,-2.790437 -0.449179,-9.644827 0,-12.435264 1.086614,-6.750329 3.217067,-12.264071 6.859118,-17.751789 C 35.432667,31.223703 45.74479,24.488548 57.460165,22.426763 58.378574,22.265141 59.859,22.065059 60.75,21.98214 c 2.298128,-0.213833 8.117645,-0.05589 10.35,0.28091 z m 410.85,0.07312 c 12.08077,1.999843 22.4872,8.691438 29.16562,18.75427 3.64204,5.487718 5.77251,11.00146 6.85911,17.751789 0.24027,1.492592 0.31912,3.028924 0.31912,6.217632 0,3.188708 -0.0788,4.72504 -0.31912,6.217632 -0.77805,4.833514 -2.04946,8.864108 -4.07243,12.910398 -4.3488,8.698377 -11.04258,15.362274 -19.7123,19.624269 -4.36255,2.14461 -8.1198,3.31656 -13.05,4.07054 -2.84449,0.43501 -8.99735,0.43378 -11.88,-0.002 -12.71088,-1.92316 -23.28709,-8.729399 -30.41278,-19.571941 -3.20611,-4.878444 -5.43755,-10.899112 -6.41238,-17.301236 -0.43833,-2.878746 -0.44125,-9.03458 -0.006,-11.8946 1.11051,-7.291012 3.81843,-13.959935 7.95224,-19.584315 6.88374,-9.36588 17.35092,-15.680633 28.60855,-17.259262 2.88643,-0.404759 3.42314,-0.431072 7.29,-0.357325 2.36571,0.04513 4.21418,0.183519 5.67,0.424511 z"
       style="fill:#f9f9f9;fill-opacity:1" />
    <path
       id="path3350"
       d="M 58.86,0.27820748 C 52.852653,0.94868445 49.011104,1.7643837 44.1,3.4122543 34.531072,6.6230394 26.12668,11.853383 18.895945,19.097609 10.007861,28.002267 4.0403095,38.866849 1.3715911,51.002602 0.30451126,55.855059 -4.18194e-4,58.992638 0.00173265,65.097811 0.00376895,70.877884 0.23093433,73.391051 1.1874844,78.216005 5.0485606,97.691713 18.436572,114.84532 36.63,123.62731 c 7.601942,3.66947 14.799382,5.56518 23.74846,6.25502 3.423755,0.26392 4.428393,0.27506 7.56,0.0839 6.088921,-0.37174 10.422652,-1.11974 15.67154,-2.70492 7.932218,-2.39555 15.288365,-6.28766 21.86297,-11.56761 l 2.06297,-1.65673 81.23202,81.37788 81.23204,81.37787 81.23204,-81.37787 81.23202,-81.37788 2.06298,1.65673 c 6.57459,5.27995 13.93074,9.17206 21.86296,11.56761 5.24889,1.58518 9.58262,2.33318 15.67154,2.70492 7.4063,0.45217 16.25175,-0.72812 23.38846,-3.12082 7.18879,-2.41017 13.73143,-5.89783 19.53,-10.41081 13.91049,-10.82639 22.78976,-26.637153 24.75281,-44.075754 0.31102,-2.762953 0.36138,-11.287417 0.0823,-13.929189 -0.8723,-8.257214 -3.03248,-15.586972 -6.7606,-22.939529 -3.10036,-6.114521 -6.9166,-11.349263 -11.95046,-16.392519 C 512.24508,10.222111 501.34925,4.2229434 489.24,1.5535068 473.34505,-1.9504801 456.95254,0.57211223 442.8,8.7000528 433.39342,14.102346 425.24784,22.114764 419.58178,31.538712 c -8.04596,13.382326 -10.96266,28.882305 -8.35954,44.424528 1.23538,7.37595 3.61305,14.140931 7.33448,20.868151 l 0.37803,0.683375 -74.33229,74.423814 c -40.88275,40.9331 -74.45387,74.42381 -74.60246,74.42381 -0.14859,0 -33.71971,-33.49071 -74.60246,-74.42381 l -74.3323,-74.423814 0.37803,-0.683375 c 6.90892,-12.489234 9.5478,-26.354715 7.69316,-40.422152 C 125.65484,30.001533 106.13726,8.2369924 80.237416,1.8807165 73.461973,0.21790547 65.050078,-0.41267053 58.86,0.27820748 Z M 71.28,22.25914 c 17.469833,2.68225 31.57662,15.809437 35.63335,33.158882 0.75038,3.209163 0.97761,5.449169 0.9781,9.641835 7.2e-4,6.0273 -0.82548,10.550276 -2.87165,15.720984 -5.767969,14.575751 -18.480025,24.657709 -34.1898,27.116029 -2.799823,0.43812 -9.4923,0.42834 -12.24,-0.0179 C 46.782783,105.96149 37.056197,100.11686 30.0697,90.741381 25.930123,85.186297 23.400995,79.200141 22.112779,71.908265 21.57095,68.841278 21.524114,61.708303 22.025803,58.662006 23.554325,49.380685 27.391124,41.630146 33.746485,34.985606 40.663642,27.753708 50.537401,22.936773 60.39,21.987512 c 2.354789,-0.22688 8.668935,-0.06939 10.89,0.271629 z m 408.06,-0.267413 c 14.24837,1.251907 27.28282,10.008513 34.09322,22.904044 2.27279,4.30352 3.69029,8.600733 4.54097,13.766233 0.5017,3.046297 0.45486,10.179272 -0.087,13.246259 -1.04775,5.930773 -2.88083,10.899959 -5.74512,15.57414 -6.1378,10.01621 -15.9269,17.091357 -27.3121,19.740027 -3.35534,0.78059 -5.27488,0.97802 -9.54,0.98119 -5.32082,0.004 -7.93501,-0.36987 -12.69,-1.81469 -11.23796,-3.41469 -20.67831,-11.40208 -25.97769,-21.979479 -2.15147,-4.294275 -3.4344,-8.355001 -4.20575,-13.312184 -0.43508,-2.796042 -0.42828,-9.311056 0.0128,-12.164931 2.51625,-16.28405 13.33483,-29.390079 28.73071,-34.805456 2.97468,-1.046328 7.31857,-1.959996 10.44,-2.195923 1.85282,-0.140032 5.80801,-0.10898 7.74,0.06077 z"
       style="fill:#f9f9f9;fill-opacity:1" />
    <path
       id="path3348"
       d="M 58.41,0.35808152 C 54.991384,0.74752154 53.685869,0.95504626 50.990735,1.5373951 31.724291,5.7004509 15.257167,18.594377 6.5760498,36.314574 3.0360046,43.540633 0.95804438,50.825247 0.18306619,58.726163 -0.05215999,61.124294 -0.05309537,68.710922 0.1815187,71.277489 2.1969225,93.325013 15.692986,113.0454 35.659112,123.1172 c 1.347011,0.67949 2.49561,1.23544 2.552442,1.23544 0.05683,0 0.615231,0.23469 1.240887,0.52154 1.534765,0.70365 4.172116,1.66943 6.357559,2.32811 10.48129,3.159 21.095066,3.67444 31.77,1.54288 10.117492,-2.02025 19.622338,-6.453 27.63478,-12.88795 l 2.29669,-1.84452 81.24427,81.38965 81.24426,81.38966 81.24426,-81.38966 81.24428,-81.38965 2.29669,1.84452 c 15.55106,12.48938 36.2511,17.07668 55.71477,12.34686 3.60376,-0.87574 7.54007,-2.18028 10.04756,-3.3299 0.62565,-0.28685 1.18406,-0.52154 1.24089,-0.52154 0.0568,0 1.20542,-0.55595 2.55243,-1.23544 19.96613,-10.0718 33.4622,-29.792187 35.47761,-51.839711 0.23461,-2.566567 0.23367,-10.153195 -0.002,-12.551326 C 539.0417,50.825247 536.96374,43.540633 533.4237,36.314574 524.15647,17.398015 506.10737,4.0966624 485.27975,0.83473058 474.08008,-0.91930839 462.75853,0.25933832 452.15975,4.2827228 441.18796,8.447707 431.24544,15.808392 423.99311,25.135164 c -9.51046,12.230784 -14.39046,27.695981 -13.58067,43.038483 0.5139,9.736703 2.765,18.138454 7.1478,26.677767 l 1.36949,2.668253 -74.46474,74.556503 -74.46499,74.5565 -74.46499,-74.5565 -74.46499,-74.556503 1.36949,-2.668253 c 8.05042,-15.685138 9.446,-33.631368 3.91697,-50.369413 C 123.65039,36.289866 118.92691,28.128548 113.23985,21.818823 102.09072,9.448998 87.708605,2.1186085 71.1,0.34065413 67.750144,-0.01796805 61.637355,-0.00955172 58.41,0.35813559 Z M 69.223738,21.998179 c 5.087997,0.495338 9.698931,1.832976 14.566262,4.225737 11.860942,5.830751 20.21545,16.435165 23.21307,29.464438 0.73798,3.207649 0.89615,4.895781 0.88652,9.461613 -0.0104,4.92541 -0.22703,6.715601 -1.32388,10.939662 C 102.55364,91.54039 89.901135,103.73051 74.16,107.31108 c -3.219361,0.7323 -5.078212,0.90678 -9.54,0.89546 -5.536906,-0.014 -7.848713,-0.35613 -12.8282,-1.89823 C 37.818113,101.98082 26.811439,90.426425 22.971011,76.053351 21.789389,71.631029 21.326191,65.866185 21.759815,60.97909 c 0.718796,-8.101052 3.687149,-15.603697 8.90267,-22.501862 1.419203,-1.877076 5.752892,-6.219362 7.587515,-7.602577 6.715211,-5.062937 14.340501,-8.156686 21.87,-8.873174 2.291305,-0.218031 6.880831,-0.219689 9.103738,-0.0032 z M 479.61,21.991872 c 7.832,0.731265 15.30508,3.729515 22.14,8.882707 1.83463,1.383215 6.16831,5.725501 7.58752,7.602577 3.05278,4.037676 5.56036,8.737215 6.97183,13.066038 1.60964,4.936655 2.21566,9.443591 2.03557,15.138582 -0.21366,6.756709 -1.74332,12.52887 -4.91927,18.562784 -5.25833,9.990167 -14.56665,17.76525 -25.21745,21.06368 -4.97948,1.54209 -7.29129,1.88418 -12.8282,1.89823 -4.46179,0.0113 -6.32065,-0.16316 -9.54,-0.89546 -7.97492,-1.81402 -15.40993,-5.92152 -21.16019,-11.690015 -6.47139,-6.491911 -10.47989,-14.321928 -12.16708,-23.766636 -0.52947,-2.9639 -0.5837,-10.171758 -0.0986,-13.102317 0.61737,-3.729335 1.26486,-6.118726 2.57568,-9.50465 5.26815,-13.608089 17.64763,-23.942027 32.02016,-26.729238 3.37331,-0.654167 8.80189,-0.880922 12.6,-0.526282 z"
       style="fill:#f9f9f9;fill-opacity:1" />
    <path
       id="path3346"
       d="M 61.56,0.05583253 C 61.5105,0.10661887 60.3765,0.23929772 59.04,0.35063839 54.189745,0.75473038 50.572085,1.4756332 45.36,3.0766284 25.330676,9.2290921 9.0377699,25.542031 2.8928594,45.595966 0.70939867,52.721697 0.00307907,57.479068 0.00307907,65.059857 c 0,5.231389 0.2056197,7.562514 1.08891433,12.345153 1.9062664,10.321557 6.7812554,20.664901 13.7086606,29.08589 1.964299,2.38781 6.992418,7.31226 9.542011,9.34528 9.384228,7.48288 19.808545,11.8923 32.357335,13.68695 3.187818,0.4559 13.173685,0.45599 16.2,1.4e-4 12.884564,-1.94078 22.570524,-6.0346 32.20215,-13.61043 l 2.41215,-1.89729 81.24284,81.38823 81.24286,81.38823 81.24286,-81.38823 81.24283,-81.38823 2.41217,1.89729 c 9.63162,7.57583 19.31758,11.66965 32.20214,13.61043 3.02632,0.45585 13.01218,0.45576 16.2,-1.4e-4 12.54879,-1.79465 22.97311,-6.20407 32.35734,-13.68695 2.54959,-2.03302 7.57771,-6.95747 9.542,-9.34528 8.33214,-10.128583 13.53539,-22.756521 14.62082,-35.483743 0.36054,-4.227431 0.18135,-11.623728 -0.36894,-15.228692 -0.607,-3.976491 -1.10405,-6.135686 -2.34407,-10.182499 C 532.59811,30.88076 522.46861,17.850496 509.22,9.7228262 502.37674,5.5246812 494.87218,2.6213175 487.17,1.1921273 481.32497,0.10755602 475.19073,-0.19588243 469.53,0.31956825 c -2.49887,0.2275473 -2.9048,0.28415478 -6.21,0.86603505 -8.5018,1.4967371 -17.63561,5.311137 -25.11,10.4862427 -4.47712,3.099877 -10.27237,8.532772 -13.69447,12.838239 -7.48609,9.418486 -11.91456,19.906622 -13.69726,32.439817 -0.46388,3.261265 -0.46514,12.798698 -0.002,16.129799 1.11441,8.017771 3.22866,14.870232 6.66144,21.590429 l 1.4545,2.847421 -74.466,74.557559 L 270,246.63267 195.53395,172.07511 121.06791,97.517551 l 1.4545,-2.847421 c 3.43278,-6.720197 5.54702,-13.572658 6.66145,-21.590429 0.46301,-3.331101 0.46175,-12.868534 -0.002,-16.129799 C 127.65195,46.194805 124.40098,37.517749 118.64826,28.835394 114.56657,22.675054 107.94461,15.933177 101.79001,11.671846 92.636653,5.3342414 81.967034,1.4301815 70.830007,0.34341152 68.613883,0.12714606 61.699536,-0.0873352 61.560007,0.05583253 Z M 69.39,21.995981 c 7.811773,0.75992 15.021488,3.676548 21.96,8.88368 1.826325,1.3706 6.161607,5.711624 7.587515,7.597567 5.766825,7.62734 8.713715,15.798913 9.001485,24.960638 0.12233,3.894562 -0.10311,6.937381 -0.75146,10.142868 -3.47342,17.172774 -16.96997,30.581056 -34.217608,33.993816 -4.321069,0.85501 -10.924654,0.94881 -15.189932,0.21578 -1.934912,-0.33253 -5.096664,-1.08175 -6.12,-1.4502 -0.2475,-0.0891 -1.179,-0.42513 -2.07,-0.74669 -0.891,-0.32156 -2.837063,-1.20516 -4.324583,-1.96354 -4.53233,-2.31072 -7.363557,-4.374851 -10.984133,-8.008094 -5.03501,-5.05261 -8.361325,-10.378219 -10.500687,-16.812134 -1.264338,-3.802379 -1.729663,-6.113897 -2.105829,-10.460778 -0.259497,-2.998683 -0.259497,-3.579392 0,-6.578074 0.26419,-3.052911 0.524526,-4.775862 1.027973,-6.803351 C 25.825207,42.392696 34.055105,32.046755 45.48789,26.323885 53.083631,22.521722 60.671338,21.147824 69.39,21.995981 Z m 409.29554,-0.09952 c 6.00955,0.530787 10.61703,1.819711 15.82657,4.427422 11.43279,5.72287 19.66268,16.068811 22.78516,28.643584 0.50344,2.027489 0.76377,3.75044 1.02796,6.803351 0.2595,2.998682 0.2595,3.579391 0,6.578074 -0.7769,8.977683 -3.47461,15.965887 -8.99219,23.293591 -1.41392,1.877797 -5.74902,6.221182 -7.58304,7.597562 -3.53785,2.655045 -7.96464,5.135215 -11.34,6.353395 -0.891,0.32156 -1.8225,0.65757 -2.07,0.74669 -1.02334,0.36845 -4.18509,1.11767 -6.12,1.4502 -2.73514,0.47006 -7.83304,0.63693 -10.95993,0.35875 -5.43886,-0.48386 -10.02501,-1.78074 -15.05007,-4.25589 -12.12772,-5.973663 -20.72842,-17.116211 -23.39753,-30.312458 -0.64836,-3.205487 -0.8738,-6.248306 -0.75147,-10.142868 0.28777,-9.161725 3.23466,-17.333298 9.00148,-24.960638 1.4259,-1.885943 5.7612,-6.226967 7.58752,-7.597567 4.24456,-3.18541 8.18905,-5.325122 12.51,-6.786104 4.25767,-1.439589 7.06516,-1.970124 12.42,-2.347021 1.73687,-0.122262 2.16682,-0.109628 5.10554,0.149927 z"
       style="fill:#f9f9f9;fill-opacity:1" />
    <path
       id="path3344"
       d="M 60.66,0.21031815 C 50.453809,1.1360604 43.018974,3.2142633 35.01,7.3800225 29.094032,10.457155 24.441073,13.808008 19.732003,18.382563 9.8561038,27.976369 3.538424,39.744382 1.0104856,53.255368 0.20678956,57.55085 0.10235567,58.896526 0.10136301,64.969746 c -9.9262e-4,6.073041 0.10257809,7.431043 0.90029279,11.80449 3.0405327,16.66965 12.4077022,31.317554 26.4450752,41.353444 5.495947,3.92928 12.915639,7.50663 19.263269,9.28764 3.493145,0.98011 5.504989,1.39717 9.72,2.01501 2.315621,0.33942 3.494381,0.39659 8.28,0.4016 6.076287,0.006 7.804791,-0.15003 12.87,-1.16435 10.120405,-2.02665 19.675287,-6.46111 27.43193,-12.73128 1.07906,-0.87227 2.07559,-1.66704 2.21451,-1.76616 0.19657,-0.14027 18.25207,17.85027 81.43759,81.1446 44.65175,44.72865 81.25294,81.32482 81.33597,81.32482 0.083,0 36.68422,-36.59617 81.33597,-81.32482 63.18553,-63.29433 81.24102,-81.28487 81.4376,-81.1446 0.1389,0.0991 1.13544,0.89389 2.2145,1.76616 7.75665,6.27017 17.31152,10.70463 27.43193,12.73128 5.06522,1.01432 6.7937,1.1707 12.87,1.16435 4.78562,-0.005 5.96437,-0.0622 8.28,-0.4016 4.21501,-0.61784 6.22685,-1.0349 9.72,-2.01501 4.90468,-1.37615 11.52729,-4.31472 15.95518,-7.07961 7.42986,-4.63939 14.34012,-11.18977 19.23743,-18.23557 5.23575,-7.532682 8.86421,-16.271411 10.51573,-25.325904 0.79772,-4.373447 0.90129,-5.731449 0.9003,-11.80449 -0.002,-6.656326 -0.23083,-8.922914 -1.46142,-14.417697 C 534.71558,33.93414 524.09707,19.024908 509.49,9.9078773 501.61228,4.9909921 492.59036,1.7917232 483.39,0.65256298 476.64986,-0.18198738 473.85864,-0.18227573 467.1,0.65076077 449.51051,2.8190202 433.73891,12.092663 422.97266,26.597497 c -4.8564,6.542787 -8.61711,14.507555 -10.58719,22.422582 -1.28934,5.180044 -1.78018,8.794309 -1.92134,14.147365 -0.24969,9.469183 1.28186,18.023833 4.74302,26.492518 0.82264,2.012783 3.18309,6.887009 3.48669,7.199837 0.0914,0.09417 0.16616,0.296951 0.16616,0.450634 0,0.153774 -33.4935,33.814107 -74.43,74.800827 l -74.43,74.5213 -74.43,-74.5213 c -40.9365,-40.98672 -74.43,-74.647053 -74.43,-74.800736 0,-0.153684 0.0748,-0.356469 0.16616,-0.450635 0.30361,-0.312828 2.66406,-5.187054 3.48669,-7.199837 3.46116,-8.468685 4.99272,-17.023335 4.74302,-26.492518 -0.26542,-10.065102 -2.6269,-19.2156 -7.27883,-28.204619 C 119.24361,29.140004 115.37411,23.912507 110.44887,19.010724 100.15936,8.7701768 87.145378,2.4068723 72.9,0.65085088 67.597834,-0.00273936 64.312492,-0.1209825 60.66,0.21031815 Z M 69.93,21.98059 c 11.447224,1.528564 21.041271,6.848802 28.448611,15.775754 4.013549,4.836921 7.225549,11.449904 8.622259,17.751789 0.16477,0.743412 0.37167,1.676057 0.45979,2.072544 0.0881,0.396486 0.29121,2.221226 0.45131,4.054977 0.24201,2.771946 0.25661,3.774697 0.0866,5.9473 -0.51426,6.570919 -1.83159,11.470035 -4.5246,16.826948 -2.17077,4.3181 -4.593289,7.650859 -8.149693,11.211904 -4.988209,4.994734 -10.374865,8.364394 -16.788604,10.502224 -3.876219,1.29203 -6.121036,1.74147 -10.549267,2.11209 -3.087135,0.25838 -3.662831,0.25796 -6.57,-0.005 -3.363377,-0.3039 -5.006541,-0.57903 -7.740918,-1.29615 C 37.844251,102.78336 25.338094,89.377456 22.26029,73.259913 c -1.016854,-5.32496 -1.017021,-11.067547 -5.4e-4,-16.40013 3.511093,-18.418464 18.955901,-32.776868 37.500189,-34.86237 0.9405,-0.105753 1.9935,-0.225366 2.34,-0.26579 1.051432,-0.12264 6.295966,0.0441 7.83,0.248958 z m 410.4,0 c 4.97273,0.664007 9.10015,1.864641 13.32,3.874684 12.54861,5.977252 21.52044,17.524152 24.09019,31.004518 1.01653,5.332583 1.01637,11.07517 0,16.40013 -3.0778,16.117543 -15.58395,29.523448 -31.41516,33.675338 -2.73438,0.71712 -4.37755,0.99225 -7.74092,1.29615 -2.90716,0.26267 -3.48286,0.26309 -6.57,0.005 -4.42824,-0.37062 -6.67305,-0.82006 -10.54926,-2.11209 -6.41374,-2.13783 -11.80041,-5.50749 -16.7886,-10.502225 -5.46365,-5.470777 -8.96118,-11.397874 -11.12179,-18.84757 -0.819,-2.823905 -1.25723,-5.418315 -1.55252,-9.191282 -0.17002,-2.172603 -0.15543,-3.175354 0.0866,-5.9473 0.1601,-1.833751 0.36319,-3.658491 0.4513,-4.054977 0.0881,-0.396487 0.29504,-1.329132 0.45979,-2.072544 3.93277,-17.744491 19.17306,-31.487782 37.16088,-33.510711 0.9405,-0.105753 1.9935,-0.225366 2.34,-0.26579 1.05143,-0.12264 6.29596,0.0441 7.83,0.248958 z"
       style="fill:#f9f9f9;fill-opacity:1" />
    <path
       id="path3342"
       d="m 61.29,0.19516155 c -2.797236,0.25847326 -6.55816,0.70479109 -7.65,0.90784635 -2.266934,0.4215734 -5.410249,1.1328164 -6.3,1.4254777 -0.2475,0.081406 -1.0575,0.3269573 -1.8,0.5456737 -4.988264,1.4693616 -11.149868,4.3397448 -15.75,7.3371657 -4.163627,2.712978 -7.309469,5.265253 -10.81107,8.77115 -3.502013,3.506312 -6.052234,6.657462 -8.760156,10.824356 C 8.5908913,32.51178 6.7701499,35.876204 5.6835655,38.387118 5.4047524,39.031409 5.067697,39.801854 4.9345537,40.099219 4.4396356,41.204588 3.4526979,43.934669 2.98004,45.505856 2.7116708,46.397951 2.4258215,47.330595 2.344819,47.578399 2.2638166,47.826204 2.063653,48.596649 1.9000111,49.290501 1.7363691,49.984353 1.5293784,50.835898 1.4400317,51.182824 1.350685,51.52975 1.1885091,52.340745 1.0796409,52.985036 -0.30231047,61.163528 -0.32993757,69.294713 0.99942532,76.594014 4.6705873,96.751703 17.511976,113.90015 35.82,123.09355 c 3.211803,1.61281 6.817509,3.06134 9.9,3.97714 0.6435,0.19118 1.413,0.42359 1.71,0.51646 0.541478,0.16932 2.815139,0.70868 4.5,1.06749 0.495,0.10541 1.71,0.31221 2.7,0.45955 0.99,0.14733 2.4885,0.37061 3.33,0.49616 2.0887,0.31163 11.627206,0.30781 13.68,-0.005 0.8415,-0.12843 2.34,-0.35138 3.33,-0.49546 2.169394,-0.3157 4.633848,-0.85387 7.74,-1.69021 1.647353,-0.44355 5.054197,-1.65959 7.72936,-2.75892 1.531307,-0.62927 5.745154,-2.80815 7.606858,-3.93333 2.871732,-1.73562 4.797792,-3.07606 7.208602,-5.01686 1.11365,-0.89653 2.13267,-1.63006 2.26448,-1.63006 0.13181,0 36.74389,36.56969 81.36017,81.26598 L 270,276.61198 351.12053,195.346 c 44.61627,-44.69628 81.22836,-81.26597 81.36018,-81.26597 0.13181,0 1.15083,0.73352 2.26447,1.63006 2.41081,1.94079 4.33687,3.28124 7.2086,5.01686 1.86171,1.12517 6.07556,3.30406 7.60686,3.93333 2.67516,1.09933 6.082,2.31537 7.72936,2.75892 3.10615,0.83633 5.5706,1.3745 7.74,1.69021 0.99,0.14407 2.4885,0.36703 3.33,0.49545 2.05279,0.3133 11.5913,0.31712 13.68,0.005 0.8415,-0.12555 2.34,-0.34882 3.33,-0.49616 0.99,-0.14733 2.205,-0.35413 2.7,-0.45954 1.68485,-0.35881 3.95852,-0.89817 4.5,-1.06749 0.297,-0.0929 1.0665,-0.32528 1.71,-0.51647 3.08248,-0.9158 6.68821,-2.36432 9.9,-3.97713 17.50808,-8.79171 30.11348,-24.966504 34.34209,-44.066553 1.79449,-8.105503 1.93016,-16.976117 0.39827,-26.041965 -0.10886,-0.644291 -0.27104,-1.455286 -0.3604,-1.802212 -0.0893,-0.346926 -0.29633,-1.198471 -0.45997,-1.892323 -0.16364,-0.693851 -0.36381,-1.464297 -0.44481,-1.712101 -0.081,-0.247804 -0.36684,-1.180449 -0.63522,-2.072544 -0.47267,-1.571187 -1.45959,-4.301268 -1.95452,-5.406636 -0.13314,-0.297365 -0.47019,-1.067811 -0.74901,-1.712102 C 533.22986,35.8762 531.4091,32.511777 529.78122,30.006828 525.38729,23.245541 520.04664,17.541143 513.72,12.851679 507.87614,8.5200622 500.86514,4.9608736 494.46,3.0741557 c -0.7425,-0.2187164 -1.5525,-0.4642678 -1.8,-0.5456737 -1.90258,-0.6258182 -6.3126,-1.4889877 -9.63,-1.88487962 -6.10004,-0.72794951 -9.71482,-0.75307235 -14.76,-0.10256389 -0.693,0.0893537 -1.7055,0.21262498 -2.25,0.27395426 -1.89261,0.21311155 -4.8343,0.81573525 -7.65,1.56713155 -14.16476,3.7799597 -27.12022,12.7113627 -35.61374,24.5518417 -4.24206,5.913671 -7.60142,12.646717 -9.49098,19.022439 -0.19095,0.644291 -0.42308,1.414736 -0.51583,1.712101 -0.0928,0.297365 -0.32753,1.23001 -0.52169,2.072544 -0.70377,3.053651 -0.66269,2.821219 -1.49735,8.470397 -0.31488,2.131098 -0.31029,11.254454 0.007,13.606702 0.32817,2.434248 0.86069,5.673129 1.18519,7.208848 1.04069,4.925049 3.0546,10.542995 5.52204,15.404192 0.77854,1.533808 1.4155,2.912529 1.4155,3.06385 2e-5,0.356637 -148.50396,149.047581 -148.86014,149.047581 -0.35608,0 -148.85984,-148.691215 -148.85984,-149.047741 0,-0.151231 0.63697,-1.529878 1.41549,-3.063687 2.46746,-4.861196 4.48136,-10.479142 5.52206,-15.404191 0.3245,-1.535719 0.857,-4.774601 1.18519,-7.208849 0.31714,-2.352247 0.32173,-11.475603 0.007,-13.606701 -0.83468,-5.649178 -0.79359,-5.416747 -1.49735,-8.470397 -0.19418,-0.842534 -0.42895,-1.775179 -0.5217,-2.072544 -0.0928,-0.297365 -0.32489,-1.067811 -0.51583,-1.712101 -1.5267,-5.151317 -4.28701,-11.097194 -7.4505,-16.048789 C 115.3093,23.685969 109.81366,17.770424 103.77,13.208052 95.718274,7.1297673 86.291815,2.9996919 76.319998,1.1811878 71.609726,0.32219948 64.770692,-0.12646122 61.289998,0.19516155 Z M 70.839776,22.059256 c 3.319094,0.527508 4.785744,0.887193 7.910224,1.939919 9.398158,3.166505 17.573476,9.692838 22.85164,18.242424 5.21882,8.453438 7.31893,17.827788 6.22223,27.774341 -2.04596,18.555702 -16.376103,34.04021 -34.83387,37.63989 -2.073706,0.40442 -6.292037,0.83734 -8.158952,0.83734 -1.7618,0 -6.490683,-0.4427 -7.771048,-0.7275 -4.803957,-1.06856 -7.354467,-1.90067 -10.669084,-3.48081 -6.576824,-3.13528 -11.923684,-7.503261 -16.372842,-13.37537 -3.453147,-4.557542 -6.401449,-11.062429 -7.631992,-16.838573 -0.691953,-3.248018 -0.857556,-4.988144 -0.857556,-9.01106 0,-6.109788 0.771166,-10.308599 2.879701,-15.679245 2.260073,-5.756644 5.32832,-10.479107 9.610875,-14.792467 4.658177,-4.691699 9.740968,-7.991838 15.750898,-10.226671 3.780945,-1.405978 6.737737,-2.0662 11.79,-2.632563 1.306481,-0.146466 7.71514,0.08168 9.279776,0.330345 z M 481.32,22.070845 c 4.9347,0.78088 8.81188,1.994183 12.96,4.05559 4.71546,2.343362 7.94524,4.679011 11.7009,8.46171 6.61417,6.661769 10.63001,14.721117 12.1752,24.434301 0.43452,2.731415 0.44077,9.311832 0.0113,11.984711 -0.79796,4.967167 -1.91236,8.608518 -3.88897,12.707397 -4.43805,9.203087 -11.43808,16.16957 -20.66942,20.570306 -3.31459,1.58014 -5.8651,2.41225 -10.66905,3.48081 -1.28036,0.2848 -6.00925,0.7275 -7.77105,0.7275 -1.86691,0 -6.08524,-0.43292 -8.15895,-0.83734 -17.26151,-3.36639 -30.99425,-17.11556 -34.35476,-34.395908 -1.01515,-5.220053 -1.0145,-11.162469 0.002,-16.40013 2.9599,-15.254212 14.00212,-27.94456 28.59296,-32.860617 3.73567,-1.258664 6.0363,-1.746343 10.71,-2.270264 1.33375,-0.149512 7.73129,0.08418 9.36,0.341934 z"
       style="fill:#f9f9f9;fill-opacity:1" />
    <path
       id="path3340"
       d="M 60.3,0.35593689 C 58.076712,0.52264151 55.757194,0.79457729 54.156532,1.076209 52.34087,1.3956691 50.357498,1.8017976 49.77,1.9744135 49.473,2.0616766 48.9465,2.1884802 48.6,2.2562074 47.43911,2.4830878 42.733901,4.014896 40.86,4.7760062 40.2165,5.037363 39.451788,5.3470011 39.16064,5.4640908 38.869493,5.5811805 37.498426,6.233293 36.113828,6.9132316 23.52697,13.09435 13.269289,23.304224 6.9347831,35.956294 6.1401524,37.54343 5.3934811,39.084322 5.2755138,39.380497 2.7294057,45.772889 1.6446638,49.616251 0.82541983,55.14769 c -0.16882686,1.139899 -0.39876745,2.599691 -0.51097909,3.243982 -0.28542969,1.63886 -0.2719631,11.373797 0.0184486,13.33637 1.01259376,6.843035 1.58802006,9.49654 2.97021466,13.696812 1.1342605,3.446838 2.0124866,5.54009 3.8184129,9.101171 3.2280021,6.365265 6.8052811,11.236805 12.1384831,16.530195 5.350788,5.31084 10.535036,9.02611 17.01,12.19014 4.239396,2.0716 7.583922,3.33011 11.79,4.43645 0.2475,0.0651 0.7335,0.196 1.08,0.2909 5.954062,1.63064 15.513289,2.29219 22.23,1.53843 3.276477,-0.36769 6.997199,-0.96943 8.37,-1.35365 0.3465,-0.097 1.0755,-0.29547 1.62,-0.44109 2.129873,-0.56961 3.228577,-0.90766 5.22,-1.60609 1.1385,-0.39929 2.14695,-0.79614 2.241,-0.88189 0.09405,-0.0858 0.270385,-0.1559 0.391855,-0.1559 0.261385,0 2.390574,-0.9628 4.657145,-2.10591 4.411393,-2.22482 7.37405,-4.14197 11.62416,-7.52202 l 2.02202,-1.60809 81.24192,81.3868 81.2419,81.3868 81.2419,-81.3868 81.24192,-81.3868 2.02203,1.60809 c 4.25011,3.38005 7.21276,5.2972 11.62415,7.52202 2.26658,1.14311 4.39576,2.10591 4.65714,2.10591 0.12148,0 0.29781,0.0701 0.39186,0.1559 0.0941,0.0857 1.1025,0.4826 2.241,0.88189 1.99143,0.69843 3.09013,1.03648 5.22,1.60609 0.5445,0.14562 1.2735,0.34411 1.62,0.44109 1.37281,0.38422 5.09351,0.98596 8.37,1.35365 6.71672,0.75376 16.27594,0.0922 22.23,-1.53843 0.3465,-0.0949 0.8325,-0.2258 1.08,-0.2909 6.03607,-1.58768 11.70182,-4.03632 17.39122,-7.51619 7.06781,-4.32296 14.55828,-11.47106 19.23878,-18.35943 4.26166,-6.271963 7.28269,-12.827473 9.21067,-19.986761 0.64033,-2.377766 1.14212,-5.062377 1.88644,-10.092387 0.29041,-1.962573 0.30387,-11.69751 0.0185,-13.33637 -0.11221,-0.644291 -0.34215,-2.104083 -0.51099,-3.243982 -0.81923,-5.531439 -1.90398,-9.374801 -4.45008,-15.767193 -0.11797,-0.296175 -0.86465,-1.837067 -1.65928,-3.424203 C 526.73071,23.304224 516.47303,13.09435 503.88617,6.9132316 502.50157,6.233293 501.13051,5.5811805 500.83936,5.4640908 500.54821,5.3470011 499.7835,5.037363 499.14,4.7760062 497.26609,4.014896 492.56089,2.4830878 491.4,2.2562074 c -0.3465,-0.067727 -0.873,-0.1937018 -1.17,-0.2799557 -0.95128,-0.2762611 -3.0062,-0.6746761 -4.95,-0.959732 -1.0395,-0.15243109 -2.5785,-0.37923948 -3.42,-0.50400662 -2.0552,-0.30471802 -11.26867,-0.30433956 -13.32,0 -6.85874,1.01942132 -9.48476,1.59038012 -13.68,2.97431682 -5.8536,1.9309981 -11.82987,4.9398453 -16.91462,8.5159571 -4.09838,2.882404 -10.04067,8.443039 -12.97992,12.146296 -6.13332,7.727544 -10.06863,15.517191 -12.42791,24.600196 -0.10299,0.396486 -0.26391,1.004733 -0.3576,1.351659 -0.9666,3.579121 -1.66219,9.875996 -1.65237,14.95836 0.0119,6.170162 0.64494,10.999207 2.26802,17.301236 0.36416,1.41389 2.0248,6.296353 2.35998,6.938517 0.15522,0.297365 0.28271,0.599452 0.2833,0.671324 0.003,0.28812 1.92483,4.279226 3.26106,6.770352 l 0.4149,0.773506 L 344.55742,172.16384 270,246.81289 195.44258,172.16384 120.88515,97.514792 l 0.4149,-0.773506 c 1.42079,-2.648765 3.08365,-6.121754 3.34735,-6.991123 0.0752,-0.247805 0.20056,-0.531653 0.27865,-0.630775 0.18169,-0.230611 1.94189,-5.451925 2.27834,-6.758295 1.62308,-6.302029 2.25612,-11.131075 2.26803,-17.301236 0.01,-5.155156 -0.70055,-11.511594 -1.68207,-15.048471 -0.11003,-0.396487 -0.27095,-1.004733 -0.3576,-1.351659 -1.79384,-7.182086 -5.29271,-14.729516 -9.69155,-20.905661 -2.39693,-3.365396 -4.00436,-5.255034 -7.21837,-8.485643 C 105.36111,14.080016 100.40373,10.442377 94.23,7.3130163 86.796742,3.5452215 81.514346,1.9637984 71.64,0.55007118 69.876742,0.29761731 62.713285,0.17497677 60.3,0.35593689 Z M 68.94,21.81475 c 3.678336,0.377167 7.690811,1.237796 9.99,2.14274 0.198,0.07793 1.0485,0.407931 1.89,0.733338 0.8415,0.325408 2.53751,1.11229 3.76891,1.748633 8.057441,4.163704 14.709845,10.826573 18.76656,18.796063 2.37455,4.664846 3.46513,8.101033 4.49012,14.147365 0.3257,1.921302 0.33152,9.412557 0.009,11.263825 -0.75725,4.343151 -1.63552,7.847859 -2.37105,9.461614 -0.0904,0.198243 -0.42653,1.009239 -0.74706,1.802212 -1.27922,3.164739 -3.80797,7.412246 -6.169422,10.36272 -2.16565,2.705823 -6.079728,6.377556 -8.791425,8.24709 -1.430364,0.98614 -4.476715,2.8048 -5.715383,3.41207 -2.130464,1.04448 -3.125407,1.49699 -3.291484,1.49699 -0.09026,0 -0.419351,0.11661 -0.731313,0.25913 -1.595802,0.72907 -6.104496,1.95236 -8.364078,2.26934 -4.25084,0.5963 -9.747916,0.66917 -12.723125,0.16865 -3.439789,-0.57868 -5.601346,-1.09547 -8.01,-1.91508 -2.522223,-0.85826 -2.929912,-1.03247 -5.722177,-2.44514 C 38.190929,100.21123 31.925282,94.453972 27.775175,87.73893 26.838526,86.223378 24.48,81.435945 24.48,81.050236 c 0,-0.159424 -0.07477,-0.336131 -0.166151,-0.392684 -0.09138,-0.05653 -0.223184,-0.362785 -0.292889,-0.680533 -0.0697,-0.317766 -0.192688,-0.702052 -0.273295,-0.853996 -0.08061,-0.151927 -0.281121,-0.762841 -0.445583,-1.357571 -0.164463,-0.59473 -0.371675,-1.284076 -0.460474,-1.53188 -0.206941,-0.577501 -0.480017,-1.854008 -0.80963,-3.784646 C 21.269804,67.984613 21.23732,62.865682 21.940483,58.03123 22.636514,53.245798 25.070749,46.706327 27.772414,42.364005 31.168548,36.905483 36.715003,31.351894 42.12,27.997978 c 1.977102,-1.226838 5.406325,-2.90358 7.29,-3.564505 0.495,-0.17368 1.024159,-0.379384 1.175908,-0.457114 0.15175,-0.07773 0.55675,-0.201559 0.9,-0.275161 0.343251,-0.07362 0.705092,-0.191485 0.804092,-0.261934 0.099,-0.07045 0.828,-0.274314 1.62,-0.453022 0.792,-0.178725 1.6425,-0.392432 1.89,-0.474901 2.09513,-0.698087 9.366233,-1.083562 13.14,-0.696591 z m 410.4,-0.01243 c 2.05988,0.190746 4.00367,0.475171 4.86,0.711135 0.3465,0.09548 1.2375,0.315387 1.98,0.488688 0.7425,0.1733 1.431,0.371345 1.53,0.440118 0.099,0.06877 0.46084,0.185249 0.8041,0.25887 0.34324,0.0736 0.74824,0.197432 0.9,0.275161 0.15174,0.07773 0.6809,0.283434 1.1759,0.457113 1.88368,0.660926 5.3129,2.337668 7.29,3.564506 5.405,3.353916 10.95145,8.907505 14.34758,14.366027 2.70168,4.342322 5.13591,10.881793 5.83193,15.667225 0.70317,4.834452 0.67068,9.953383 -0.0915,14.417696 -0.32962,1.930638 -0.60268,3.207145 -0.80962,3.784646 -0.0888,0.247804 -0.29601,0.93715 -0.46048,1.53188 -0.16447,0.59473 -0.36497,1.205644 -0.44559,1.35757 -0.0806,0.151945 -0.20358,0.536231 -0.27329,0.853997 -0.0697,0.317748 -0.20151,0.623998 -0.29288,0.680533 -0.0914,0.05655 -0.16616,0.23326 -0.16616,0.392684 0,0.385709 -2.35852,5.173142 -3.29517,6.688694 -4.15327,6.720142 -10.41043,12.469597 -17.44265,16.027377 -4.6643,2.35979 -7.84571,3.36994 -13.73218,4.36022 -2.9752,0.50052 -8.47228,0.42765 -12.72312,-0.16866 -2.25959,-0.31697 -6.76829,-1.54027 -8.36408,-2.26933 -0.31197,-0.14252 -0.64105,-0.25913 -0.73132,-0.25913 -0.16607,0 -1.16102,-0.45251 -3.29148,-1.49698 -1.23867,-0.60727 -4.28503,-2.42593 -5.71538,-3.41207 -2.7117,-1.869541 -6.62578,-5.541274 -8.79143,-8.247097 -2.36146,-2.950474 -4.89021,-7.197982 -6.16941,-10.36272 -0.32053,-0.792973 -0.65671,-1.603969 -0.74707,-1.802212 -0.73554,-1.613755 -1.61379,-5.118463 -2.37104,-9.461614 -0.32277,-1.851268 -0.31696,-9.342523 0.009,-11.263825 1.025,-6.046332 2.11558,-9.48252 4.49012,-14.147365 4.05672,-7.96949 10.70914,-14.632359 18.76657,-18.796063 1.2314,-0.636343 2.92741,-1.423225 3.76891,-1.748633 0.8415,-0.325407 1.692,-0.65541 1.89,-0.733338 2.20343,-0.86726 6.47487,-1.798517 9.81,-2.138811 1.9084,-0.194711 6.43894,-0.203434 8.46,-0.01622 z"
       style="fill:#f9f9f9;fill-opacity:1" />
  </g>
</svg>
